<svg version="1.1" id="Layer_1" xmlns="http://www.w3.org/2000/svg" xmlns:xlink="http://www.w3.org/1999/xlink" x="0px" y="0px"
	 width="100%" viewBox="0 0 1024 1024" enable-background="new 0 0 1024 1024" xml:space="preserve">
<path fill="#000000" opacity="1.000000" stroke="none" 
	d="
M368.529419,606.422852 
	C335.845184,549.756104 303.341248,493.408447 270.904510,437.177246 
	C273.013763,435.067169 274.942352,435.673553 276.661743,435.668854 
	C303.319641,435.596375 329.978058,435.643982 356.635162,435.473602 
	C359.825897,435.453217 361.371582,436.706787 362.864319,439.265991 
	C411.204407,522.140747 459.606537,604.979370 508.006714,687.819092 
	C508.813812,689.200500 509.711151,690.529175 510.965515,692.514038 
	C518.296997,679.968933 525.255005,668.078186 532.198486,656.178955 
	C564.678162,600.517395 597.150391,544.851501 629.633057,489.191833 
	C639.285400,472.652405 649.001343,456.149933 658.589722,439.573608 
	C660.048340,437.051941 661.607056,435.543610 664.783203,435.553894 
	C692.440613,435.643341 720.098389,435.599487 747.756104,435.607147 
	C748.718567,435.607422 749.787659,435.367706 750.823792,436.903534 
	C748.962158,440.221344 746.997375,443.811432 744.952332,447.355286 
	C698.250366,528.283936 651.514832,609.193298 604.910522,690.178162 
	C602.782166,693.876648 600.350220,695.132202 596.189209,695.122620 
	C539.874817,694.992432 483.559906,694.948059 427.245819,695.118896 
	C421.737488,695.135620 418.631470,693.489807 415.848724,688.564819 
	C400.365021,661.160950 384.466400,633.991516 368.529419,606.422852 
z"/>
<path fill="#000000" opacity="1.000000" stroke="none" 
	d="
M453.360535,368.426849 
	C472.375366,335.961761 491.195740,303.806885 509.906189,271.839874 
	C512.838806,271.957367 513.204285,274.083008 514.056580,275.541351 
	C544.470947,327.585236 574.828308,379.662445 605.271118,431.689697 
	C606.952942,434.564026 607.277893,436.773407 605.460388,439.878357 
	C574.842529,492.184875 544.367859,544.575256 513.835693,596.932007 
	C513.117493,598.163574 512.769714,599.820251 510.646545,600.229309 
	C507.361664,597.513550 505.909912,593.323853 503.784058,589.696716 
	C474.992218,540.571594 446.375763,491.343506 417.515015,442.259033 
	C414.775879,437.600525 414.882721,434.132477 417.628906,429.542633 
	C429.681763,409.398041 441.355133,389.026398 453.360535,368.426849 
M507.349365,474.177917 
	C511.018860,477.681732 512.279968,477.619171 514.842407,473.292023 
	C521.280457,462.420288 527.523621,451.432678 534.015930,440.593994 
	C535.956055,437.355072 535.978394,434.648193 534.020569,431.369354 
	C527.543335,420.521973 521.351257,409.504852 514.984131,398.591156 
	C511.852814,393.223846 509.990967,393.257263 506.754761,398.750427 
	C500.508789,409.352264 494.447968,420.064667 488.089020,430.597595 
	C485.828979,434.341064 485.871735,437.549133 488.096130,441.258270 
	C494.509277,451.952026 500.704926,462.776215 507.349365,474.177917 
z"/>
<path fill="#000000" opacity="1.000000" stroke="none" 
	d="
M882.319824,474.263275 
	C840.744202,542.173645 799.346985,609.766541 757.953491,677.361694 
	C755.170837,681.905762 752.265503,686.384338 749.703674,691.050659 
	C748.039185,694.082642 745.782349,695.135193 742.422607,695.125061 
	C715.272095,695.043213 688.121277,695.083984 660.970520,695.054260 
	C659.364624,695.052551 657.599609,695.389587 656.284180,693.880981 
	C655.923950,691.853149 657.308594,690.464905 658.198242,688.938660 
	C702.550964,612.847595 746.920166,536.766113 791.296265,460.688599 
	C795.490234,453.498596 799.764832,446.355591 803.952148,439.161774 
	C805.195374,437.025940 806.596191,435.584503 809.394836,435.592346 
	C840.376282,435.679291 871.358032,435.667542 902.339661,435.702972 
	C902.978149,435.703674 903.616394,435.948883 905.450562,436.325653 
	C897.618103,449.164124 890.058594,461.555206 882.319824,474.263275 
z"/>
<path fill="#000000" opacity="1.000000" stroke="none" 
	d="
M194.554169,556.371399 
	C171.735001,516.622925 149.094757,477.194702 126.471931,437.756531 
	C126.328003,437.505615 126.425858,437.116028 126.404572,436.656433 
	C127.774979,435.014801 129.738342,435.701111 131.434372,435.693817 
	C157.926910,435.579437 184.420242,435.596344 210.911819,435.384644 
	C214.392563,435.356781 216.292816,436.536469 218.007309,439.481232 
	C266.535431,522.831421 315.145447,606.133911 363.730408,689.450989 
	C364.473053,690.724548 365.471802,691.924316 365.371948,693.639832 
	C363.673279,695.402649 361.395172,694.945496 359.316650,694.949097 
	C332.989899,694.994690 306.662689,694.916016 280.336578,695.058838 
	C276.163635,695.081421 273.752319,693.634705 271.648926,689.971741 
	C246.105865,645.490173 220.398453,601.103027 194.554169,556.371399 
z"/>
</svg>