<svg id="svg" version="1.1" xmlns="http://www.w3.org/2000/svg" xmlns:xlink="http://www.w3.org/1999/xlink" width="400" height="324.6428571428571" viewBox="0, 0, 400,324.6428571428571"><g id="svgg"><path id="path0" d="M196.235 57.009 C 194.900 59.293,184.671 76.805,173.503 95.925 L 153.198 130.690 164.025 149.229 C 169.979 159.425,180.209 176.945,186.756 188.161 C 195.716 203.509,198.710 208.500,198.860 208.339 C 198.970 208.221,208.084 192.656,219.114 173.750 C 230.145 154.844,240.309 137.422,241.703 135.034 L 244.236 130.694 228.264 103.338 C 219.479 88.292,209.265 70.782,205.565 64.427 C 201.866 58.072,198.799 52.869,198.750 52.865 C 198.701 52.861,197.569 54.726,196.235 57.009 M204.829 119.286 C 208.007 124.737,210.798 129.538,211.033 129.955 L 211.459 130.713 205.275 141.315 C 201.875 147.146,198.995 152.042,198.876 152.194 C 198.645 152.492,186.161 131.384,186.161 130.694 C 186.161 130.093,198.640 108.924,198.855 109.161 C 198.963 109.279,201.650 113.835,204.829 119.286 M16.307 130.962 C 16.359 131.098,21.498 140.037,27.727 150.828 C 33.956 161.618,47.677 185.393,58.217 203.661 C 68.758 221.929,79.493 240.531,82.074 245.000 L 86.767 253.125 108.309 253.170 L 129.851 253.216 129.500 252.635 C 129.306 252.315,122.721 241.045,114.867 227.589 C 100.407 202.820,73.292 156.379,63.596 139.777 L 58.304 130.715 37.258 130.715 C 19.403 130.714,16.226 130.752,16.307 130.962 M85.055 130.847 C 85.097 130.922,95.563 149.063,108.313 171.161 C 133.908 215.521,133.035 214.008,146.250 236.937 L 155.625 253.202 177.098 253.208 C 188.908 253.212,198.571 253.172,198.571 253.121 C 198.571 253.070,188.942 236.537,177.172 216.380 C 154.251 177.126,143.679 159.020,133.566 141.696 L 127.207 130.804 106.092 130.758 C 94.479 130.733,85.013 130.773,85.055 130.847 M269.000 132.907 C 268.303 134.107,252.600 161.004,234.103 192.679 C 215.607 224.353,200.089 250.931,199.620 251.742 L 198.765 253.216 220.297 253.170 L 241.829 253.125 245.489 246.786 C 254.453 231.259,275.415 194.931,292.940 164.554 C 303.421 146.384,312.112 131.337,312.253 131.116 L 312.508 130.714 291.388 130.719 L 270.268 130.724 269.000 132.907 M319.356 164.598 C 308.474 183.234,292.394 210.769,283.624 225.786 C 274.854 240.802,267.679 253.117,267.679 253.152 C 267.679 253.186,277.343 253.214,289.155 253.214 L 310.631 253.214 337.947 208.616 C 352.970 184.087,369.793 156.625,375.330 147.589 C 380.868 138.554,385.438 131.060,385.486 130.938 C 385.556 130.760,380.859 130.714,362.359 130.714 L 339.143 130.714 319.356 164.598 " stroke="none" fill="#ac9434" fill-rule="evenodd"></path><path id="path1" d="M0.000 162.321 L 0.000 324.643 200.000 324.643 L 400.000 324.643 400.000 162.321 L 400.000 0.000 200.000 0.000 L 0.000 0.000 0.000 162.321 M207.083 66.835 C 216.712 83.359,242.129 126.896,243.438 129.107 L 244.336 130.625 243.842 131.518 C 243.375 132.363,228.077 158.587,208.007 192.946 C 203.015 201.491,198.902 208.563,198.865 208.661 C 198.762 208.939,199.066 209.445,189.957 193.839 C 182.592 181.221,168.560 157.191,156.297 136.195 L 153.084 130.694 160.611 117.803 C 190.614 66.418,198.659 52.679,198.743 52.684 C 198.796 52.686,202.549 59.055,207.083 66.835 M192.375 119.911 L 186.088 130.697 192.350 141.420 C 195.795 147.318,198.664 152.143,198.727 152.143 C 198.857 152.143,211.130 131.161,211.217 130.789 C 211.265 130.587,199.571 110.321,198.891 109.428 C 198.690 109.164,197.853 110.512,192.375 119.911 M70.308 151.071 C 82.820 172.496,90.494 185.638,106.698 213.393 C 112.174 222.772,119.583 235.459,123.163 241.586 C 126.743 247.713,129.714 252.835,129.766 252.970 C 129.845 253.176,126.468 253.214,108.275 253.214 L 86.691 253.214 75.952 234.598 C 66.329 217.914,49.492 188.739,24.617 145.641 C 19.917 137.498,16.071 130.815,16.071 130.788 C 16.071 130.641,18.466 130.633,37.571 130.714 L 58.472 130.804 70.308 151.071 M312.500 130.819 C 312.500 130.855,308.659 137.536,303.964 145.666 C 299.270 153.795,283.384 181.319,268.663 206.831 L 241.897 253.215 198.695 253.170 L 155.493 253.125 149.154 242.143 C 135.675 218.793,120.061 191.732,103.043 162.232 C 93.298 145.339,85.210 131.337,85.069 131.116 L 84.813 130.714 106.042 130.714 L 127.271 130.714 134.959 143.884 C 139.188 151.127,149.709 169.147,158.340 183.929 C 166.971 198.710,179.574 220.299,186.347 231.905 C 193.119 243.510,198.716 252.952,198.784 252.887 C 198.851 252.821,201.228 248.790,204.066 243.929 C 206.904 239.067,214.153 226.652,220.175 216.339 C 242.329 178.403,250.118 165.065,260.011 148.125 L 270.127 130.804 291.090 130.714 C 310.626 130.631,312.500 130.640,312.500 130.819 M385.512 131.116 C 385.394 131.337,383.917 133.768,382.229 136.518 C 379.098 141.620,347.929 192.505,339.516 206.250 C 336.961 210.424,333.467 216.129,331.751 218.929 C 330.036 221.728,326.713 227.152,324.367 230.982 C 322.021 234.813,318.008 241.362,315.451 245.536 L 310.801 253.125 289.136 253.170 L 267.470 253.216 267.825 252.635 C 268.020 252.315,274.184 241.768,281.522 229.196 C 288.861 216.625,298.924 199.388,303.885 190.893 C 329.969 146.225,335.983 135.924,337.431 133.438 L 339.018 130.715 362.372 130.715 L 385.727 130.714 385.512 131.116 " stroke="none" fill="#fbfbfb" fill-rule="evenodd"></path><path id="path2" d="" stroke="none" fill="#dad4aa" fill-rule="evenodd"></path><path id="path3" d="" stroke="none" fill="#cfc494" fill-rule="evenodd"></path><path id="path4" d="" stroke="none" fill="#e9e6cc" fill-rule="evenodd"></path></g></svg>