<svg id="svg" version="1.1" xmlns="http://www.w3.org/2000/svg" xmlns:xlink="http://www.w3.org/1999/xlink" width="40" height="33" viewBox="0, 0, 400,324.6428571428571"><g id="svgg"><path id="path0" d="M175.929 91.773 L 153.198 130.689 163.400 148.157 C 169.011 157.764,179.240 175.283,186.131 187.087 C 193.022 198.892,198.727 208.484,198.808 208.404 C 198.890 208.324,209.144 190.806,221.595 169.475 L 244.234 130.692 228.263 103.337 C 219.478 88.292,209.265 70.782,205.565 64.427 C 201.866 58.072,198.799 52.869,198.750 52.865 C 198.701 52.861,188.432 70.370,175.929 91.773 M205.034 119.643 C 208.325 125.290,211.114 130.095,211.233 130.320 C 211.421 130.675,200.305 150.353,198.876 152.195 C 198.644 152.494,186.161 131.391,186.161 130.698 C 186.161 130.094,198.640 108.924,198.856 109.161 C 198.963 109.279,201.743 113.996,205.034 119.643 M16.307 130.962 C 16.359 131.097,22.101 141.082,29.067 153.149 C 36.033 165.216,47.946 185.857,55.540 199.018 C 63.134 212.179,73.266 229.737,78.055 238.036 L 86.764 253.125 108.308 253.170 L 129.851 253.216 129.499 252.635 C 129.305 252.315,115.588 228.830,99.016 200.446 C 82.445 172.063,66.505 144.761,63.595 139.777 L 58.304 130.715 37.258 130.715 C 19.404 130.714,16.226 130.752,16.307 130.962 M85.055 130.847 C 85.278 131.241,126.746 203.117,130.164 209.036 C 132.382 212.876,139.018 224.385,144.911 234.610 L 155.625 253.202 177.098 253.208 C 188.908 253.211,198.571 253.173,198.571 253.122 C 198.571 253.071,192.836 243.207,185.826 231.202 C 172.442 208.284,144.085 159.714,134.506 143.304 C 131.410 138.000,128.500 133.018,128.040 132.232 L 127.203 130.804 106.091 130.758 C 94.479 130.733,85.012 130.773,85.055 130.847 M267.128 136.120 C 264.064 141.386,201.341 248.817,199.622 251.742 L 198.756 253.216 220.293 253.170 L 241.830 253.125 257.443 226.071 C 266.030 211.192,281.090 185.097,290.908 168.083 C 300.727 151.069,309.596 135.701,310.619 133.931 L 312.477 130.714 291.373 130.718 L 270.268 130.722 267.128 136.120 M338.438 131.920 C 338.047 132.583,331.699 143.451,324.332 156.071 C 316.965 168.692,301.204 195.684,289.308 216.054 C 277.412 236.425,267.679 253.119,267.679 253.153 C 267.679 253.187,277.342 253.214,289.154 253.214 L 310.629 253.214 317.492 242.009 C 321.267 235.846,326.497 227.308,329.115 223.036 C 331.732 218.763,341.330 203.094,350.443 188.214 C 359.556 173.335,371.180 154.358,376.274 146.043 C 381.368 137.729,385.536 130.878,385.536 130.820 C 385.536 130.762,375.098 130.714,362.342 130.714 L 339.148 130.714 338.438 131.920 " stroke="none" fill="#ac9434" fill-rule="evenodd"></path><path id="path1" d="M0.000 162.321 L 0.000 324.643 200.000 324.643 L 400.000 324.643 400.000 162.321 L 400.000 0.000 200.000 0.000 L 0.000 0.000 0.000 162.321 M214.279 79.157 C 222.771 93.715,233.003 111.245,237.016 118.115 C 243.253 128.792,244.286 130.660,244.137 130.987 C 244.041 131.198,234.981 146.752,224.003 165.551 C 213.024 184.351,202.872 201.758,201.441 204.234 C 200.010 206.711,198.799 208.740,198.750 208.743 C 198.700 208.747,196.561 205.154,193.996 200.759 C 189.832 193.626,172.056 163.183,158.172 139.409 L 153.081 130.693 156.977 124.020 C 163.997 111.997,182.994 79.471,190.899 65.938 C 195.159 58.645,198.688 52.681,198.742 52.684 C 198.795 52.687,205.787 64.600,214.279 79.157 M192.379 119.916 L 186.097 130.697 192.332 141.375 C 195.761 147.247,198.628 152.071,198.703 152.095 C 198.840 152.139,211.111 131.250,211.217 130.792 C 211.264 130.591,199.161 109.629,198.782 109.255 C 198.715 109.189,195.834 113.986,192.379 119.916 M58.492 130.932 C 58.608 131.058,60.833 134.817,63.436 139.286 C 66.039 143.754,71.220 152.634,74.949 159.018 C 78.679 165.402,86.937 179.545,93.302 190.446 C 99.666 201.348,106.939 213.804,109.464 218.125 C 125.255 245.148,129.675 252.733,129.762 252.959 C 129.846 253.179,126.897 253.214,108.275 253.214 L 86.691 253.214 77.237 236.830 C 72.038 227.819,56.148 200.285,41.927 175.642 C 27.707 151.000,16.071 130.816,16.071 130.790 C 16.071 130.495,58.218 130.636,58.492 130.932 M127.802 131.641 C 128.433 132.691,156.153 180.161,181.971 224.404 C 191.150 240.134,198.716 252.951,198.784 252.886 C 198.851 252.821,202.635 246.379,207.192 238.571 C 218.390 219.385,258.233 151.155,267.360 135.536 C 268.824 133.031,270.080 130.922,270.152 130.849 C 270.292 130.707,312.295 130.628,312.436 130.770 C 312.482 130.816,307.424 139.681,301.195 150.471 C 286.976 175.102,263.369 216.008,251.202 237.099 L 241.905 253.215 198.695 253.170 L 155.486 253.125 148.221 240.536 C 144.225 233.612,129.942 208.862,116.481 185.536 C 103.020 162.210,90.404 140.353,88.446 136.964 C 86.050 132.818,84.961 130.774,85.115 130.714 C 85.241 130.665,94.769 130.640,106.288 130.659 L 127.232 130.693 127.802 131.641 M385.616 130.892 C 385.559 131.039,379.434 141.083,372.004 153.213 C 345.499 196.481,340.795 204.165,325.893 228.528 L 310.804 253.197 289.137 253.206 L 267.471 253.214 267.822 252.634 C 268.015 252.315,269.697 249.442,271.560 246.250 C 273.423 243.058,279.006 233.496,283.966 225.000 C 288.926 216.504,302.931 192.518,315.088 171.696 C 327.245 150.875,337.615 133.116,338.133 132.232 L 339.076 130.625 362.397 130.625 C 383.016 130.625,385.706 130.656,385.616 130.892 " stroke="none" fill="#ffffff" fill-rule="evenodd"></path><path id="path2" d="" stroke="none" fill="#dad4aa" fill-rule="evenodd"></path><path id="path3" d="" stroke="none" fill="#cfc494" fill-rule="evenodd"></path><path id="path4" d="M310.313 130.662 C 310.533 130.704,310.895 130.704,311.116 130.662 C 311.337 130.619,311.156 130.584,310.714 130.584 C 310.272 130.584,310.092 130.619,310.313 130.662 M383.351 130.665 C 383.672 130.705,384.155 130.704,384.423 130.663 C 384.691 130.623,384.429 130.590,383.839 130.591 C 383.250 130.592,383.030 130.625,383.351 130.665 " stroke="none" fill="#e9e6cc" fill-rule="evenodd"></path><path id="path5" d="" stroke="none" fill="#cecc8c" fill-rule="evenodd"></path></g></svg>
